<svg version="1.1" id="Layer_1" xmlns="http://www.w3.org/2000/svg" xmlns:xlink="http://www.w3.org/1999/xlink" x="0px" y="0px"
	 width="100%" viewBox="0 0 1024 528" enable-background="new 0 0 1024 528" xml:space="preserve">
<path fill="#000000" opacity="1.000000" stroke="none" 
	d="
M409.374390,304.700317 
	C403.934845,302.964050 398.883972,301.261169 393.753998,299.844818 
	C390.879883,299.051300 389.705627,297.533478 389.719086,294.526794 
	C389.798065,276.865509 389.792633,259.203461 389.701996,241.542236 
	C389.687012,238.619766 390.643585,236.927490 393.530487,236.039688 
	C414.010223,229.741577 433.049500,220.154465 451.978333,210.314774 
	C455.159943,208.660889 457.902252,207.188141 458.139282,202.775772 
	C458.319702,199.416504 460.944122,196.896515 464.592072,196.995499 
	C468.416046,197.099228 470.565399,199.628769 471.128510,203.368378 
	C471.325409,204.676102 471.266785,206.027405 471.267212,207.358841 
	C471.280151,246.681107 471.287048,286.003357 471.287415,325.325623 
	C471.287445,326.656891 471.358734,328.013275 471.139069,329.314453 
	C470.588043,332.578003 468.834778,334.884369 465.365082,335.275055 
	C461.661987,335.691986 458.802826,333.839905 458.340332,330.366455 
	C457.746979,325.909973 454.864777,324.452026 451.465302,322.832367 
	C437.778107,316.311188 423.968567,310.088409 409.374390,304.700317 
M411.760468,274.419067 
	C416.010590,286.374542 426.626190,292.340820 438.496857,289.445740 
	C449.781036,286.693695 456.742767,275.675598 454.694885,263.809753 
	C452.842834,253.078674 442.502411,245.349258 430.820923,246.370758 
	C419.146637,247.391632 408.497284,257.633148 411.760468,274.419067 
z"/>
<path fill="#000000" opacity="1.000000" stroke="none" 
	d="
M327.864807,310.193237 
	C322.557709,310.187256 317.724335,310.044861 312.902283,310.217590 
	C309.104797,310.353638 307.590973,308.973724 307.605072,305.010834 
	C307.690491,281.035400 307.627655,257.059021 307.482849,233.083771 
	C307.465546,230.215652 308.530945,229.194656 311.207489,229.150681 
	C326.357849,228.901733 341.539520,228.606186 356.622467,229.988327 
	C371.110260,231.315887 379.331177,240.872665 378.242188,253.601730 
	C377.755463,259.291046 374.065674,263.213928 370.451172,267.754517 
	C374.592133,271.201111 378.842468,274.311523 380.627167,279.705170 
	C384.438416,291.223358 379.679810,302.040161 368.394989,306.588318 
	C363.387177,308.606659 362.458466,310.436005 365.017273,315.364594 
	C368.820740,322.690399 370.216125,331.106567 375.891937,337.651093 
	C378.163910,340.270844 376.358002,343.699951 373.180847,344.966248 
	C367.630005,347.178619 361.928528,349.078522 356.172089,350.686676 
	C352.279724,351.774048 350.437653,348.956360 349.256195,345.769196 
	C345.728424,336.252472 341.937561,326.817902 338.850433,317.159149 
	C337.069061,311.585632 334.100891,309.123932 327.864807,310.193237 
M342.491089,277.115601 
	C341.158234,277.120178 339.825348,277.126709 338.492493,277.128998 
	C327.706909,277.147583 326.958588,278.059631 328.807556,288.934326 
	C328.835449,289.098389 328.858185,289.264435 328.867523,289.430420 
	C329.008575,291.938049 330.430847,292.859283 332.826538,292.835876 
	C339.323273,292.772491 345.826477,292.951935 352.316193,292.724091 
	C357.722504,292.534332 360.571533,289.843903 360.748169,285.408691 
	C360.927704,280.901093 357.874359,277.787140 352.462128,277.295532 
	C349.484680,277.025085 346.470734,277.156189 342.491089,277.115601 
M328.812256,257.543671 
	C329.064697,259.383331 329.865570,260.689850 331.950104,260.681519 
	C337.914764,260.657715 343.896729,260.887787 349.838379,260.502014 
	C354.347809,260.209290 357.108795,256.944427 356.863037,252.999359 
	C356.582672,248.498138 353.506104,246.688126 349.545898,246.353622 
	C345.758453,246.033707 341.929382,246.175827 338.118530,246.169479 
	C327.847870,246.152374 327.847839,246.163925 328.812256,257.543671 
z"/>
<path fill="#000000" opacity="1.000000" stroke="none" 
	d="
M644.828491,239.809357 
	C640.359863,251.158173 640.345154,251.201111 629.154419,247.360962 
	C623.870361,245.547714 618.476746,244.847458 612.934998,245.298553 
	C611.458618,245.418716 609.973022,245.727097 608.550903,246.148865 
	C605.689148,246.997635 603.288025,248.390091 603.192383,251.861404 
	C603.095337,255.383636 605.505798,256.901276 608.328552,257.752502 
	C622.505127,262.027435 636.747131,265.962372 651.816162,263.477417 
	C657.270996,262.577911 662.779175,262.891815 668.262695,262.639008 
	C670.690186,262.527069 673.273071,262.848511 675.279541,260.993866 
	C675.797424,258.268524 672.939697,256.490936 673.697388,252.913223 
	C683.134399,256.705597 692.390259,260.425140 701.646057,264.144684 
	C701.755859,264.637177 701.865723,265.129669 701.975525,265.622162 
	C693.041504,270.184143 684.107544,274.746094 674.843811,279.476440 
	C673.659668,275.699921 676.517944,273.383850 675.926697,270.503601 
	C666.012390,270.503601 656.024963,270.503601 646.224976,270.503601 
	C645.531067,272.350739 646.509949,273.208282 647.021912,274.201355 
	C653.141052,286.069092 649.467468,299.401276 638.149231,306.383362 
	C624.355164,314.892731 595.112793,313.219788 582.288391,303.235168 
	C580.794983,302.072418 580.005493,300.904755 580.890625,299.005554 
	C582.848755,294.803986 584.753906,290.577698 586.642822,286.444275 
	C589.533813,285.916504 591.281250,287.809479 593.263245,288.803436 
	C601.836731,293.102783 610.824951,294.890289 620.363342,293.785156 
	C623.072510,293.471252 625.709229,292.765778 627.276550,290.339844 
	C629.179565,287.394165 627.572754,283.771149 623.517639,282.019897 
	C616.904785,279.163971 609.684448,278.440643 602.843262,276.370483 
	C600.300964,275.601166 597.765442,274.783020 595.290405,273.823090 
	C587.237244,270.699707 582.587341,264.808502 581.873596,256.201263 
	C581.131775,247.256317 584.241211,239.686996 591.674133,234.511444 
	C603.811279,226.060379 617.358948,226.592560 631.074524,229.160263 
	C635.361877,229.962891 639.300903,231.756287 643.151672,233.784027 
	C645.724243,235.138672 646.433716,236.908188 644.828491,239.809357 
z"/>
<path fill="#000000" opacity="1.000000" stroke="none" 
	d="
M504.021179,250.513428 
	C506.904449,235.954834 516.884216,230.092361 529.923828,228.229248 
	C541.527283,226.571365 552.809143,228.046570 563.602417,232.928635 
	C567.466248,234.676392 569.253296,236.574646 566.578491,240.827087 
	C564.572388,244.016312 563.861145,247.951736 561.178894,251.133118 
	C557.565063,249.793015 554.004211,248.484665 550.452148,247.152542 
	C545.021301,245.115829 539.380493,244.736221 533.707886,245.398651 
	C529.823730,245.852234 525.769653,246.816971 525.429138,251.746613 
	C525.112366,256.333832 528.996033,257.435638 532.308167,258.395020 
	C539.339844,260.431732 546.510254,261.987946 553.546265,264.010864 
	C565.656128,267.492584 571.818359,274.662750 572.146729,285.262817 
	C572.465271,295.546936 566.074707,304.738800 555.148132,308.704254 
	C538.308777,314.815643 522.095520,312.586823 506.466583,304.284760 
	C503.086639,302.489349 502.410095,300.227844 504.276794,296.976685 
	C506.175385,293.670044 506.229126,288.646820 509.382904,286.979950 
	C512.926758,285.106903 516.085632,289.522949 519.591248,290.777191 
	C527.373962,293.561707 535.191040,295.635956 543.514832,293.706940 
	C546.686401,292.971924 549.745911,292.036652 549.993286,287.949310 
	C550.224121,284.135773 547.630310,282.560364 544.653320,281.691620 
	C536.829956,279.408630 528.886353,277.530884 521.087646,275.171295 
	C508.948944,271.498688 503.377869,263.444244 504.021179,250.513428 
z"/>
<path fill="#000000" opacity="1.000000" stroke="none" 
	d="
M727.522095,250.467896 
	C721.848755,260.089722 716.425415,269.436188 710.856262,278.694916 
	C709.252136,281.361786 708.498962,283.957458 708.734314,287.153168 
	C709.210571,293.618896 709.027954,300.111420 708.436401,306.589874 
	C708.214661,309.017609 707.274597,310.266022 704.773804,310.247345 
	C700.282715,310.213776 695.791199,310.214233 691.299927,310.231903 
	C688.828552,310.241608 687.744629,309.091736 687.663086,306.587616 
	C687.387390,298.120972 688.239807,289.632721 687.072937,281.178314 
	C686.756409,278.884430 688.905823,278.194702 690.447693,277.346527 
	C696.422424,274.059937 702.457336,270.882782 708.446350,267.621704 
	C710.017090,266.766449 711.503235,265.755615 713.405884,264.583557 
	C710.660095,261.940186 707.434326,261.446350 704.676392,260.120789 
	C702.264404,258.961487 701.395508,257.766266 702.968933,255.158005 
	C707.520386,247.613266 711.872131,239.948288 716.334412,232.349380 
	C717.003418,231.210083 717.726685,229.888077 719.141479,229.671570 
	C725.694946,228.668686 732.225891,228.965134 740.059143,229.654877 
	C735.522644,237.191269 731.619690,243.675217 727.522095,250.467896 
z"/>
<path fill="#000000" opacity="1.000000" stroke="none" 
	d="
M300.303375,267.000061 
	C300.302673,275.639069 300.367004,283.778778 300.274567,291.916748 
	C300.223907,296.374664 298.656799,297.231628 294.795166,295.042511 
	C290.643951,292.689148 288.045380,288.991974 287.205109,284.417938 
	C285.237915,273.709625 285.153290,262.917297 287.717957,252.307281 
	C289.322571,245.669022 293.727051,242.311600 300.302979,242.316071 
	C300.302979,250.360062 300.302979,258.430054 300.303375,267.000061 
z"/>
<path fill="#000000" opacity="1.000000" stroke="none" 
	d="
M478.689301,258.026917 
	C478.686371,252.468124 478.686371,247.403992 478.686371,242.198639 
	C487.126190,244.688629 492.960327,254.830032 493.447235,267.015686 
	C493.926147,279.000214 488.085114,290.331482 478.692230,294.017090 
	C478.692230,281.929810 478.692230,270.225708 478.689301,258.026917 
z"/>
<path fill="#000000" opacity="1.000000" stroke="none" 
	d="
M660.170532,236.734421 
	C659.164490,234.312027 657.434875,232.573517 657.197632,229.605423 
	C664.003296,228.813553 670.569946,228.932129 677.138123,229.303406 
	C678.369690,229.373016 679.216736,230.335754 679.823425,231.353500 
	C683.991211,238.344498 688.137451,245.348328 692.264893,252.363205 
	C692.590576,252.916824 692.810791,253.584946 691.734558,254.781845 
	C685.316833,252.294861 678.680969,249.406204 671.832092,247.169952 
	C666.392395,245.393829 662.472778,242.370377 660.170532,236.734421 
z"/>
</svg>